<svg xmlns="http://www.w3.org/2000/svg" width="1920" height="1080" viewBox="0 0 1920 1080">
  <defs>
    <linearGradient id="lagoonSky" x1="0%" y1="0%" x2="0%" y2="100%">
      <stop offset="0%" stop-color="#f9fffe" />
      <stop offset="55%" stop-color="#dffefa" />
      <stop offset="100%" stop-color="#b6f3ff" />
    </linearGradient>
    <linearGradient id="lagoonWater" x1="0%" y1="0%" x2="100%" y2="0%">
      <stop offset="0%" stop-color="#9ee8ff" />
      <stop offset="100%" stop-color="#74d9e9" />
    </linearGradient>
    <linearGradient id="lagoonSand" x1="0%" y1="0%" x2="0%" y2="100%">
      <stop offset="0%" stop-color="#fef4e1" />
      <stop offset="100%" stop-color="#f7d8a5" />
    </linearGradient>
  </defs>
  <rect width="1920" height="1080" fill="url(#lagoonSky)" />
  <circle cx="420" cy="220" r="220" fill="#fff6d0" opacity="0.6" />
  <path d="M0 760 C240 700 520 780 760 740 C1000 700 1280 780 1520 740 C1760 700 1920 740 1920 740 V1080 H0Z" fill="url(#lagoonSand)" />
  <path d="M0 900 C260 860 520 920 780 880 C1040 840 1300 900 1560 860 C1820 820 1920 860 1920 860 V1080 H0Z" fill="url(#lagoonWater)" />
  <g fill="#ffffff" opacity="0.45">
    <circle cx="280" cy="920" r="18" />
    <circle cx="620" cy="980" r="14" />
    <circle cx="1020" cy="920" r="20" />
    <circle cx="1520" cy="980" r="16" />
  </g>
</svg>
